Simulation
nRows=15
nColumns=15
endheader
time  TH_x TH_y TH_z SC_y  SC_z  SC_x  AC_y  AC_z  AC_x  GH_y  GH_z  GH_yy  EL_x  PS_y
2.6910411985018725  0.000000  0.000000  0.000000  -23.73627925085279  4.316439463607042  -2.932461320684304  56.538420668510895  8.70296669964015  4.966928294736697  -4.432835114584232  3.367484930360079  33.975099165662364  15.890377062875482  120.000000
2.7312059925093632  0.000000  0.000000  0.000000  -23.533841976055793  4.271888034881721  -2.8909793152422947  57.10011100387547  9.037644792637078  5.319440295733378  3.074543263119989  1.7399248702269583  28.729045105573135  16.637899634868702  120.000000
2.771370786516854  0.000000  0.000000  0.000000  -23.491803899587136  4.290738269921214  -2.7795647534756296  57.584060603195674  9.348882348031115  5.627989871331074  60.915518556183976  0.4916493290414975  -27.05910740529274  17.300136235352067  120.000000
2.8115355805243447  0.000000  0.000000  0.000000  -23.571547364643155  4.36000026740255  -2.6256991006026658  57.989895752068676  9.623966007387397  5.886136408670734  147.81053182216147  1.364434361851306  -112.10245412390435  17.85204860395043  120.000000
2.851700374531835  0.000000  0.000000  0.000000  -23.73631389470589  4.466322291716481  -2.4464618509118967  58.32057962786434  9.857894408843299  6.093470226753152  158.4740692881333  2.634823488299833  -121.10210445588561  18.278605690682767  120.000000
2.8918651685393257  0.000000  0.000000  0.000000  -23.954633219239014  4.597509240297619  -2.2501032775893193  58.58256075315197  10.053010919333609  6.253633158693858  162.62806513948357  3.82372325223494  -123.7668685713466  18.575504639385038  120.000000
2.9320299625468165  0.000000  0.000000  0.000000  -24.20056705078836  4.742990987476181  -2.0395842819546592  58.78364263658947  10.215027527686663  6.372915181813246  165.21156979344994  4.908075175534854  -125.02446315915368  18.748659467115782  120.000000
2.972194756554307  0.000000  0.000000  0.000000  -24.45386462938836  4.893598880512754  -1.8162473985231666  58.93219560909092  10.34960530453501  6.458122609547551  167.16310798273526  5.882962122271961  -125.80377340070648  18.812061255209482  120.000000
3.012359550561798  0.000000  0.000000  0.000000  -24.699355424055863  5.041880494858246  -1.5817487380486142  59.035953587375445  10.460796516655074  6.5151482795329345  168.7840816139466  6.747993234522913  -126.39703887647374  18.785746152920904  120.000000
3.0525243445692882  0.000000  0.000000  0.000000  -24.927595680093145  5.183434712602558  -1.3391804890512087  59.10215837369183  10.550596313302188  6.547666424544934  170.20057832847905  7.505414804233535  -126.92191140593742  18.692890287978443  120.000000
3.092689138576779  0.000000  0.000000  0.000000  -25.13336542473723  5.316375768011515  -1.0929932513884946  59.13706988308989  10.619491727514038  6.557313279669424  171.47281315603112  8.159398509849776  -127.43007849930635  18.55713297834947  120.000000
3.1328539325842697  0.000000  0.000000  0.000000  -25.314225405533215  5.439371822618259  -0.8481567272852785  59.145676097260804  10.667040143198719  6.545252036844089  172.62942108655844  8.715327229895404  -127.94143427134942  18.399757987245785  120.000000
3.1730187265917604  0.000000  0.000000  0.000000  -25.469770329570636  5.551226138221398  -0.609451788415801  59.13194068477826  10.692130035559098  6.513184499135518  173.67942121018694  9.179380691103557  -128.45617052345258  18.237782953991037  120.000000
3.2131835205992507  0.000000  0.000000  0.000000  -25.600282647345637  5.65061937888225  -0.38137493398048006  59.099193446532304  10.693482766576304  6.463465148184985  174.62125850602075  9.55787288927056  -128.96394570299447  18.082669503443334  120.000000
3.2533483146067415  0.000000  0.000000  0.000000  -25.706303045217027  5.736427213861137  -0.1678184570927504  59.05043876906126  10.670111372585072  6.3988229475197835  175.44851716112964  9.85653835824069  -129.44989947781755  17.940160364437094  120.000000
